<?xml version="1.0" encoding="utf-8"?>
<!-- Generator: Adobe Illustrator 16.0.0, SVG Export Plug-In . SVG Version: 6.00 Build 0)  -->
<!DOCTYPE svg PUBLIC "-//W3C//DTD SVG 1.1//EN" "http://www.w3.org/Graphics/SVG/1.1/DTD/svg11.dtd">
<svg version="1.1" id="Capa_1" xmlns="http://www.w3.org/2000/svg" xmlns:xlink="http://www.w3.org/1999/xlink" x="0px" y="0px"
	 width="512px" height="484.5px" viewBox="0 0 512 484.5" style="enable-background:new 0 0 512 484.5;" xml:space="preserve">
<style type="text/css">
<![CDATA[
	.st0{display:inline;fill:#969696;}
	.st1{fill:#969696;}
	.st2{display:inline;}
	.st3{display:none;}
]]>
</style>
<g class="st3">
	<path class="st0" d="M371.9,132.1c-10.2,0-18.5-8.3-18.5-18.5v-37c0-10.2,8.3-18.5,18.5-18.5h37c10.2,0,18.5,8.3,18.5,18.5v37
		c0,10.2-8.3,18.5-18.5,18.5H371.9z"/>
	<path class="st0" d="M242.4,172.6c-13.4,0-25.8,3.9-36.5,10.4c3.3-1,6.8-1.7,10.4-1.7c19.8,0,35.8,16,35.8,35.8
		c0,19.7-16,35.8-35.8,35.8c-19.8,0-35.8-16-35.8-35.8c0-3.7,0.7-7.1,1.7-10.5c-6.5,10.7-10.4,23.1-10.4,36.5
		c0,39,31.5,70.5,70.5,70.5c38.9,0,70.5-31.5,70.5-70.5C313,204.1,281.4,172.6,242.4,172.6z"/>
	<g class="st2">
		<path class="st1" d="M242.4,132.1c61.3,0,111,49.7,111,111c0,61.3-49.7,111-111,111c-61.3,0-111-49.7-111-111
			C131.5,181.8,181.2,132.1,242.4,132.1 M242.4,95.1c-81.6,0-148,66.4-148,148c0,81.6,66.4,148,148,148c81.6,0,148-66.4,148-148
			C390.4,161.5,324,95.1,242.4,95.1L242.4,95.1z"/>
	</g>
	<path class="st0" d="M392.7,2.6H92.2C42.4,2.6,2,43,2,92.8v300.5c0,49.8,40.4,90.2,90.2,90.2h300.5c49.8,0,90.2-40.4,90.2-90.2
		V92.8C482.9,43,442.5,2.6,392.7,2.6z M445.9,169.1H325c17.6,19.7,28.4,45.5,28.4,74c0,61.3-49.7,111-111,111
		c-61.3,0-111-49.7-111-111c0-28.5,10.8-54.3,28.4-74H39V92.8c0-29.3,23.9-53.2,53.2-53.2h300.5c29.3,0,53.2,23.9,53.2,53.2V169.1z"
		/>
</g>
<g class="st3">
	<path class="st0" d="M255.5,2.1l-63-0.1C121.6,2,75.9,49,75.9,121.6v55.2H12.5c-5.5,0-9.9,4.4-9.9,9.9v79.9c0,5.5,4.4,9.9,9.9,9.9
		h63.4v201.7c0,5.5,4.4,9.9,9.9,9.9h82.7c5.5,0,9.9-4.4,9.9-9.9V276.5h74.1c5.5,0,9.9-4.4,9.9-9.9l0-79.9c0-2.6-1-5.1-2.9-7
		c-1.9-1.9-4.4-2.9-7-2.9h-74.1V130c0-22.5,5.4-33.9,34.6-33.9l42.5,0c5.5,0,9.9-4.4,9.9-9.9V12C265.4,6.6,261,2.1,255.5,2.1z"/>
</g>
<g>
	<path class="st1" d="M507.2,195.8C501.1,89.2,390.5,4.3,254.9,4.3C115.5,4.3,2.4,94.2,2.4,205.1c0,102,95.5,186.2,219.3,199.2
		c7.6,0.8,13,7.6,12.2,15.2l-5.3,47.4c-1.2,10.8,9.9,18.6,19.7,13.9c104.6-50.5,167.1-102.4,204.4-147.3
		c6.8-8.2,28.9-39.2,33.5-47.4c9.6-17.3,16.2-35.9,19.3-55.3c1.2-6.1,1.7-11.2,2-15.3C507.9,208.8,507.4,198.9,507.2,195.8z
		 M154.8,271.7h-51.7c-7.1,0-12.9-5.8-12.9-12.9v-97.5c0-7.1,5.8-12.9,12.9-12.9s12.9,5.8,12.9,12.9v84.6h38.8
		c7.1,0,12.9,5.8,12.9,12.9C167.7,265.9,162,271.7,154.8,271.7z M205.8,261.6c0,5.6-4.5,10.1-10.1,10.1h-5.6
		c-5.6,0-10.1-4.5-10.1-10.1V158.4c0-5.6,4.5-10.1,10.1-10.1h5.6c5.6,0,10.1,4.5,10.1,10.1V261.6z M326,258.2
		c0,7.2-5.9,13.5-13,13.5c-3.4,0-6.5-1.4-8.7-3.5c-0.8-0.7-53.1-68.6-53.1-68.6v59.2c0,7.1-5.8,12.9-12.9,12.9
		c-7.1,0-12.9-5.8-12.9-12.9v-97c0-7,5.4-13.2,12.4-13.4c4-0.2,7.7,1.6,10.1,4.3c0.8,0.9,52.4,68.2,52.4,68.2v-59.6
		c0-7.1,5.8-12.9,12.9-12.9c7.1,0,12.9,5.8,12.9,12.9V258.2z M409.9,197.1c7.1,0,12.9,5.8,12.9,12.9c0,7.1-5.8,12.9-12.9,12.9h-38.8
		v22.9h38.8c7.1,0,12.9,5.8,12.9,12.9c0,7.1-5.8,12.9-12.9,12.9h-51.7c-7.1,0-12.9-5.8-12.9-12.9v-97.5c0-7.1,5.8-12.9,12.9-12.9
		h51.7c7.1,0,12.9,5.8,12.9,12.9c0,7.1-5.8,12.9-12.9,12.9h-38.8v22.9H409.9z"/>
</g>
</svg>
